<svg width="498" height="483" viewBox="0 0 498 483" fill="none" xmlns="http://www.w3.org/2000/svg">
<path d="M456.388 85.7302C453.964 84.1293 451.248 83.0224 448.396 82.4727C445.544 81.9229 442.611 81.9412 439.766 82.5265C436.921 83.1117 434.219 84.2525 431.815 85.8835C429.411 87.5144 427.352 89.6036 425.756 92.0315L292.3 265.031H205.247L71.8163 92.0315C68.5895 87.1284 63.5481 83.7086 57.8012 82.5244C52.0542 81.3402 46.0725 82.4887 41.1719 85.7172C36.2713 88.9457 32.8532 93.9897 31.6697 99.7396C30.4861 105.489 31.634 111.474 34.8608 116.377L166.99 317.159C168.968 320.206 174.563 441.102 174.563 441.102H322.906C322.906 441.102 328.475 320.206 330.479 317.159L462.608 116.377C465.84 111.487 467 105.512 465.834 99.7665C464.668 94.0206 461.27 88.9725 456.388 85.7302Z" fill="#2C6E49"/>
<path d="M323.009 443.706H174.667C173.977 443.706 173.315 443.432 172.827 442.943C172.339 442.455 172.064 441.793 172.064 441.102C169.93 394.728 166.235 324.268 164.751 318.227L32.7787 117.731C29.1722 112.252 27.8892 105.563 29.2119 99.1367C30.5345 92.7105 34.3545 87.0731 39.8314 83.4648C45.3084 79.8566 51.9936 78.5729 58.4166 79.8962C64.8395 81.2195 70.4739 85.0415 74.0803 90.5212L206.626 262.375H291.129L423.856 90.391C427.475 85.0077 433.063 81.2623 439.416 79.9619C445.769 78.6614 452.378 79.9101 457.819 83.4388C460.531 85.2253 462.865 87.5288 464.687 90.2177C466.509 92.9067 467.784 95.9285 468.439 99.1105C469.094 102.292 469.116 105.572 468.504 108.763C467.892 111.953 466.658 114.992 464.872 117.705L332.925 318.201C331.442 324.242 327.72 394.702 325.586 441.076C325.589 441.418 325.525 441.757 325.398 442.075C325.27 442.392 325.081 442.681 324.842 442.925C324.603 443.169 324.318 443.364 324.003 443.498C323.689 443.632 323.351 443.703 323.009 443.706ZM177.035 438.498H320.511C323.114 383.531 326.471 318.722 328.319 315.727L460.526 114.945C463.36 110.615 464.365 105.338 463.321 100.268C462.277 95.1987 459.27 90.7487 454.956 87.8914C452.815 86.4805 450.417 85.5055 447.9 85.0219C445.382 84.5384 442.794 84.5559 440.283 85.0733C437.772 85.5908 435.387 86.5981 433.265 88.0377C431.143 89.4773 429.326 91.321 427.916 93.4636L294.356 266.645C294.111 266.955 293.798 267.206 293.442 267.377C293.086 267.549 292.695 267.637 292.3 267.634H205.246C204.851 267.637 204.46 267.549 204.104 267.377C203.748 267.206 203.435 266.955 203.19 266.645L69.7602 93.6198C68.4055 91.3722 66.6124 89.4204 64.4878 87.8807C62.3632 86.3411 59.9506 85.2451 57.3937 84.6582C54.8368 84.0712 52.1879 84.0053 49.605 84.4643C47.022 84.9233 44.5579 85.8979 42.3594 87.3299C40.1609 88.7619 38.2731 90.6221 36.8084 92.7996C35.3436 94.9771 34.3321 97.4274 33.8339 100.004C33.3357 102.581 33.3611 105.232 33.9086 107.799C34.4561 110.366 35.5145 112.796 37.0207 114.945L169.15 315.727C171.102 318.696 174.485 383.531 177.035 438.498Z" fill="#093F68"/>
<path d="M262.892 284.247H234.655V405.221H262.892V284.247Z" fill="#093F68"/>
<path d="M262.892 407.851H234.655C233.965 407.851 233.303 407.577 232.815 407.089C232.326 406.6 232.052 405.938 232.052 405.247V284.247C232.052 283.556 232.326 282.894 232.815 282.406C233.303 281.917 233.965 281.643 234.655 281.643H262.892C263.582 281.643 264.244 281.917 264.732 282.406C265.22 282.894 265.494 283.556 265.494 284.247V405.247C265.494 405.938 265.22 406.6 264.732 407.089C264.244 407.577 263.582 407.851 262.892 407.851ZM237.257 402.644H260.289V286.851H237.257V402.644Z" fill="#093F68"/>
<path d="M441.345 65.2119V39.7985C441.345 36.9602 440.218 34.2381 438.212 32.2312C436.206 30.2242 433.486 29.0967 430.649 29.0967C427.812 29.0967 425.091 30.2242 423.086 32.2312C421.08 34.2381 419.953 36.9602 419.953 39.7985V71.8778C417.532 75.8096 416.127 82.0588 416.127 91.9794C416.127 118.877 428.671 123.512 441.527 123.512C454.384 123.512 470.311 113.513 471.872 105.91C474.917 92.0836 453.317 66.3055 441.345 65.2119Z" fill="#FFC9B0"/>
<path d="M441.632 126.116C429.608 126.116 413.629 122.601 413.629 91.9795C413.629 82.7359 414.852 75.9659 417.35 71.331V39.7985C417.35 36.2697 418.752 32.8853 421.246 30.39C423.74 27.8948 427.122 26.4929 430.649 26.4929C434.176 26.4929 437.559 27.8948 440.053 30.39C442.547 32.8853 443.948 36.2697 443.948 39.7985V63.0248C451.756 65.1339 460.136 73.4402 465.419 80.6788C468.802 85.2616 476.479 96.9007 474.527 106.431C472.576 115.961 455.113 126.116 441.632 126.116ZM422.555 71.4352C422.721 72.087 422.627 72.7775 422.295 73.362C419.953 77.1636 418.834 83.2827 418.834 92.1097C418.834 117.601 430.363 121.038 441.632 121.038C454.072 121.038 468.255 111.222 469.427 105.415C470.468 100.208 467.318 92.0316 461.229 83.8034C454.722 75.0024 446.264 68.1804 441.111 67.8159C440.462 67.7572 439.859 67.4572 439.421 66.9751C438.982 66.493 438.74 65.8638 438.743 65.212V39.7985C438.743 37.6508 437.89 35.5911 436.372 34.0724C434.854 32.5538 432.796 31.7006 430.649 31.7006C428.503 31.7006 426.444 32.5538 424.926 34.0724C423.408 35.5911 422.555 37.6508 422.555 39.7985V71.4352Z" fill="#093F68"/>
<path d="M466.538 59.4575H432.211C428.79 59.4575 426.017 62.2321 426.017 65.6547V65.6807C426.017 69.1033 428.79 71.8778 432.211 71.8778H466.538C469.958 71.8778 472.732 69.1033 472.732 65.6807V65.6547C472.732 62.2321 469.958 59.4575 466.538 59.4575Z" fill="#FFC9B0"/>
<path d="M466.537 74.4816H432.237C431.039 74.5467 429.842 74.367 428.716 73.9535C427.591 73.54 426.561 72.9013 425.691 72.0764C424.82 71.2516 424.127 70.2579 423.653 69.156C423.179 68.0541 422.935 66.8671 422.935 65.6676C422.935 64.4681 423.179 63.2811 423.653 62.1792C424.127 61.0773 424.82 60.0836 425.691 59.2588C426.561 58.4339 427.591 57.7952 428.716 57.3817C429.842 56.9682 431.039 56.7885 432.237 56.8536H466.537C467.735 56.7885 468.933 56.9682 470.058 57.3817C471.183 57.7952 472.213 58.4339 473.083 59.2588C473.954 60.0836 474.647 61.0773 475.121 62.1792C475.595 63.2811 475.839 64.4681 475.839 65.6676C475.839 66.8671 475.595 68.0541 475.121 69.156C474.647 70.2579 473.954 71.2516 473.083 72.0764C472.213 72.9013 471.183 73.54 470.058 73.9535C468.933 74.367 467.735 74.5467 466.537 74.4816ZM432.237 62.0613C431.737 62.0188 431.235 62.0805 430.761 62.2425C430.287 62.4044 429.852 62.6631 429.483 63.0021C429.114 63.3411 428.819 63.7531 428.618 64.2119C428.417 64.6707 428.312 65.1664 428.312 65.6676C428.312 66.1687 428.417 66.6644 428.618 67.1233C428.819 67.5821 429.114 67.9941 429.483 68.3331C429.852 68.6721 430.287 68.9308 430.761 69.0927C431.235 69.2547 431.737 69.3164 432.237 69.2739H466.537C467.037 69.3164 467.539 69.2547 468.013 69.0927C468.487 68.9308 468.922 68.6721 469.291 68.3331C469.66 67.9941 469.955 67.5821 470.156 67.1233C470.357 66.6644 470.461 66.1687 470.461 65.6676C470.461 65.1664 470.357 64.6707 470.156 64.2119C469.955 63.7531 469.66 63.3411 469.291 63.0021C468.922 62.6631 468.487 62.4044 468.013 62.2425C467.539 62.0805 467.037 62.0188 466.537 62.0613H432.237Z" fill="#093F68"/>
<path d="M466.538 71.8778H432.211C428.79 71.8778 426.017 74.6524 426.017 78.075V78.101C426.017 81.5236 428.79 84.2981 432.211 84.2981H466.538C469.958 84.2981 472.732 81.5236 472.732 78.101V78.075C472.732 74.6524 469.958 71.8778 466.538 71.8778Z" fill="#FFC9B0"/>
<path d="M466.537 86.8759H432.236C429.903 86.8759 427.666 85.9487 426.016 84.2982C424.367 82.6476 423.44 80.4091 423.44 78.0749C423.44 75.7408 424.367 73.5022 426.016 71.8517C427.666 70.2012 429.903 69.2739 432.236 69.2739H466.537C468.87 69.2739 471.108 70.2012 472.757 71.8517C474.407 73.5022 475.334 75.7408 475.334 78.0749C475.334 80.4091 474.407 82.6476 472.757 84.2982C471.108 85.9487 468.87 86.8759 466.537 86.8759ZM432.236 74.4816C431.284 74.4816 430.37 74.8602 429.697 75.5341C429.023 76.2079 428.645 77.1219 428.645 78.0749C428.645 79.0279 429.023 79.9419 429.697 80.6158C430.37 81.2896 431.284 81.6682 432.236 81.6682H466.537C467.49 81.6682 468.403 81.2896 469.077 80.6158C469.75 79.9419 470.129 79.0279 470.129 78.0749C470.129 77.1219 469.75 76.2079 469.077 75.5341C468.403 74.8602 467.49 74.4816 466.537 74.4816H432.236Z" fill="#093F68"/>
<path d="M466.538 84.2721H432.211C428.79 84.2721 426.017 87.0466 426.017 90.4692V90.4953C426.017 93.9179 428.79 96.6924 432.211 96.6924H466.538C469.958 96.6924 472.732 93.9179 472.732 90.4953V90.4692C472.732 87.0466 469.958 84.2721 466.538 84.2721Z" fill="#FFC9B0"/>
<path d="M466.537 99.2963H432.237C431.039 99.3614 429.842 99.1817 428.716 98.7682C427.591 98.3547 426.561 97.716 425.691 96.8911C424.82 96.0663 424.127 95.0726 423.653 93.9707C423.179 92.8688 422.935 91.6818 422.935 90.4823C422.935 89.2828 423.179 88.0958 423.653 86.9939C424.127 85.892 424.82 84.8983 425.691 84.0735C426.561 83.2486 427.591 82.6099 428.716 82.1964C429.842 81.7829 431.039 81.6032 432.237 81.6683H466.537C467.735 81.6032 468.933 81.7829 470.058 82.1964C471.183 82.6099 472.213 83.2486 473.083 84.0735C473.954 84.8983 474.647 85.892 475.121 86.9939C475.595 88.0958 475.839 89.2828 475.839 90.4823C475.839 91.6818 475.595 92.8688 475.121 93.9707C474.647 95.0726 473.954 96.0663 473.083 96.8911C472.213 97.716 471.183 98.3547 470.058 98.7682C468.933 99.1817 467.735 99.3614 466.537 99.2963ZM432.237 86.876C431.737 86.8335 431.235 86.8952 430.761 87.0571C430.287 87.2191 429.852 87.4778 429.483 87.8168C429.114 88.1558 428.819 88.5678 428.618 89.0266C428.417 89.4854 428.312 89.9811 428.312 90.4823C428.312 90.9834 428.417 91.4791 428.618 91.938C428.819 92.3968 429.114 92.8088 429.483 93.1478C429.852 93.4868 430.287 93.7455 430.761 93.9074C431.235 94.0694 431.737 94.1311 432.237 94.0886H466.537C467.037 94.1311 467.539 94.0694 468.013 93.9074C468.487 93.7455 468.922 93.4868 469.291 93.1478C469.66 92.8088 469.955 92.3968 470.156 91.938C470.357 91.4791 470.461 90.9834 470.461 90.4823C470.461 89.9811 470.357 89.4854 470.156 89.0266C469.955 88.5678 469.66 88.1558 469.291 87.8168C468.922 87.4778 468.487 87.2191 468.013 87.0571C467.539 86.8952 467.037 86.8335 466.537 86.876H432.237Z" fill="#093F68"/>
<path d="M468.515 114.32C468.171 114.319 467.83 114.249 467.513 114.115C467.196 113.981 466.909 113.785 466.668 113.539C466.183 113.051 465.911 112.391 465.911 111.704C465.911 111.016 466.183 110.356 466.668 109.868C468.641 108.058 469.874 105.581 470.129 102.916C470.129 101.956 469.748 101.035 469.069 100.356C468.391 99.6776 467.471 99.2963 466.511 99.2963H432.237C431.737 99.2538 431.235 99.3155 430.761 99.4775C430.287 99.6394 429.852 99.8981 429.483 100.237C429.114 100.576 428.819 100.988 428.618 101.447C428.417 101.906 428.312 102.401 428.312 102.903C428.312 103.404 428.417 103.899 428.618 104.358C428.819 104.817 429.114 105.229 429.483 105.568C429.852 105.907 430.287 106.166 430.761 106.328C431.235 106.49 431.737 106.551 432.237 106.509H452.25C452.94 106.509 453.602 106.783 454.09 107.272C454.578 107.76 454.852 108.422 454.852 109.113C454.852 109.803 454.578 110.466 454.09 110.954C453.602 111.442 452.94 111.717 452.25 111.717H432.237C431.039 111.782 429.842 111.602 428.716 111.188C427.591 110.775 426.561 110.136 425.691 109.311C424.82 108.487 424.127 107.493 423.653 106.391C423.179 105.289 422.935 104.102 422.935 102.903C422.935 101.703 423.179 100.516 423.653 99.4142C424.127 98.3123 424.82 97.3186 425.691 96.4937C426.561 95.6689 427.591 95.0302 428.716 94.6167C429.842 94.2031 431.039 94.0235 432.237 94.0886H466.537C468.877 94.0886 471.121 95.0186 472.776 96.674C474.43 98.3294 475.36 100.575 475.36 102.916C475.145 106.981 473.352 110.802 470.363 113.565C470.12 113.807 469.832 113.998 469.515 114.127C469.197 114.257 468.858 114.322 468.515 114.32Z" fill="#093F68"/>
<path d="M56.2012 65.2119V39.7985C56.2012 36.9602 57.3281 34.2381 59.334 32.2312C61.34 30.2242 64.0606 29.0967 66.8975 29.0967C69.7343 29.0967 72.4549 30.2242 74.4609 32.2312C76.4668 34.2381 77.5937 36.9602 77.5937 39.7985V71.8778C80.0141 75.8096 81.4454 82.0588 81.4454 91.9794C81.4454 118.877 68.8754 123.512 56.045 123.512C43.2147 123.512 27.2874 113.513 25.5958 105.91C22.7591 92.0836 44.2297 66.3055 56.2012 65.2119Z" fill="#FFC9B0"/>
<path d="M55.9149 126.116C42.4339 126.116 24.8931 115.7 23.0193 106.431C21.1455 97.1611 28.7188 85.2616 32.128 80.6788C37.333 73.5443 45.8952 65.0558 53.5726 63.0248V39.7985C53.5726 36.2697 54.9737 32.8853 57.4678 30.39C59.9618 27.8948 63.3444 26.4929 66.8714 26.4929C70.3985 26.4929 73.7811 27.8948 76.2751 30.39C78.7691 32.8853 80.1702 36.2697 80.1702 39.7985V71.331C82.7727 75.9659 83.9178 82.7359 83.9178 91.9795C83.9438 122.496 67.9645 126.116 55.9149 126.116ZM66.8714 31.7006C65.8085 31.7006 64.756 31.9101 63.774 32.317C62.7921 32.724 61.8998 33.3205 61.1482 34.0724C60.3967 34.8244 59.8005 35.7171 59.3937 36.6996C58.987 37.6821 58.7776 38.7351 58.7776 39.7985V65.212C58.7803 65.8638 58.5385 66.493 58.1 66.9751C57.6615 67.4572 57.0582 67.7572 56.4094 67.8159C51.2044 68.2845 42.8243 75.0024 36.292 83.8034C30.2022 92.0316 27.0531 100.312 28.1202 105.415C29.2913 111.118 43.4489 121.038 55.9149 121.038C67.1837 121.038 78.7128 117.601 78.7128 92.1097C78.7128 83.2827 77.5677 77.1636 75.2514 73.362C75.0616 73.0538 74.9381 72.7094 74.8888 72.3507C74.8395 71.992 74.8655 71.627 74.9652 71.279V40.0329C74.9965 38.9521 74.8111 37.876 74.42 36.868C74.0289 35.86 73.44 34.9406 72.688 34.164C71.9361 33.3874 71.0364 32.7693 70.0418 32.3462C69.0473 31.9231 67.9781 31.7036 66.8974 31.7006H66.8714Z" fill="#093F68"/>
<path d="M31.0089 71.8517H65.3358C68.7567 71.8517 71.5298 69.0771 71.5298 65.6546V65.6285C71.5298 62.2059 68.7567 59.4314 65.3358 59.4314L31.0089 59.4314C27.5881 59.4314 24.8149 62.2059 24.8149 65.6285V65.6546C24.8149 69.0771 27.5881 71.8517 31.0089 71.8517Z" fill="#FFC9B0"/>
<path d="M65.336 74.4816H31.009C28.7554 74.359 26.6344 73.377 25.0825 71.7375C23.5305 70.098 22.6655 67.9257 22.6655 65.6676C22.6655 63.4095 23.5305 61.2373 25.0825 59.5978C26.6344 57.9583 28.7554 56.9762 31.009 56.8536H65.336C67.5896 56.9762 69.7105 57.9583 71.2625 59.5978C72.8145 61.2373 73.6794 63.4095 73.6794 65.6676C73.6794 67.9257 72.8145 70.098 71.2625 71.7375C69.7105 73.377 67.5896 74.359 65.336 74.4816ZM31.009 62.0613C30.1059 62.1382 29.2646 62.5514 28.6514 63.2192C28.0383 63.887 27.6981 64.7608 27.6981 65.6676C27.6981 66.5745 28.0383 67.4482 28.6514 68.1161C29.2646 68.7839 30.1059 69.1971 31.009 69.2739H65.336C66.239 69.1971 67.0804 68.7839 67.6935 68.1161C68.3067 67.4482 68.6469 66.5745 68.6469 65.6676C68.6469 64.7608 68.3067 63.887 67.6935 63.2192C67.0804 62.5514 66.239 62.1382 65.336 62.0613H31.009Z" fill="#093F68"/>
<path d="M31.0089 84.2721H65.3358C68.7567 84.2721 71.5298 81.4975 71.5298 78.0749V78.0489C71.5298 74.6263 68.7567 71.8518 65.3358 71.8518H31.0089C27.5881 71.8518 24.8149 74.6263 24.8149 78.0489V78.0749C24.8149 81.4975 27.5881 84.2721 31.0089 84.2721Z" fill="#FFC9B0"/>
<path d="M65.3358 86.8759H31.0088C28.6759 86.8759 26.4385 85.9487 24.7888 84.2982C23.1392 82.6476 22.2124 80.4091 22.2124 78.0749C22.2124 75.7408 23.1392 73.5022 24.7888 71.8517C26.4385 70.2012 28.6759 69.2739 31.0088 69.2739H65.3358C67.6688 69.2739 69.9062 70.2012 71.5559 71.8517C73.2055 73.5022 74.1323 75.7408 74.1323 78.0749C74.1323 80.4091 73.2055 82.6476 71.5559 84.2982C69.9062 85.9487 67.6688 86.8759 65.3358 86.8759ZM31.0088 74.4816C30.0563 74.4816 29.1428 74.8602 28.4693 75.5341C27.7958 76.2079 27.4174 77.1219 27.4174 78.0749C27.4174 79.0279 27.7958 79.9419 28.4693 80.6158C29.1428 81.2896 30.0563 81.6682 31.0088 81.6682H65.3358C66.2883 81.6682 67.2018 81.2896 67.8754 80.6158C68.5489 79.9419 68.9273 79.0279 68.9273 78.0749C68.9273 77.1219 68.5489 76.2079 67.8754 75.5341C67.2018 74.8602 66.2883 74.4816 65.3358 74.4816H31.0088Z" fill="#093F68"/>
<path d="M31.0089 96.7184H65.3358C68.7567 96.7184 71.5298 93.9438 71.5298 90.5213V90.4952C71.5298 87.0726 68.7567 84.2981 65.3358 84.2981H31.0089C27.5881 84.2981 24.8149 87.0726 24.8149 90.4952V90.5213C24.8149 93.9438 27.5881 96.7184 31.0089 96.7184Z" fill="#FFC9B0"/>
<path d="M65.336 99.2962H31.009C28.7554 99.1736 26.6344 98.1915 25.0825 96.552C23.5305 94.9126 22.6655 92.7403 22.6655 90.4822C22.6655 88.2241 23.5305 86.0519 25.0825 84.4124C26.6344 82.7729 28.7554 81.7908 31.009 81.6682H65.336C67.5896 81.7908 69.7105 82.7729 71.2625 84.4124C72.8145 86.0519 73.6794 88.2241 73.6794 90.4822C73.6794 92.7403 72.8145 94.9126 71.2625 96.552C69.7105 98.1915 67.5896 99.1736 65.336 99.2962ZM31.009 86.8759C30.1059 86.9527 29.2646 87.366 28.6514 88.0338C28.0383 88.7016 27.6981 89.5754 27.6981 90.4822C27.6981 91.389 28.0383 92.2628 28.6514 92.9306C29.2646 93.5985 30.1059 94.0117 31.009 94.0885H65.336C66.239 94.0117 67.0804 93.5985 67.6935 92.9306C68.3067 92.2628 68.6469 91.389 68.6469 90.4822C68.6469 89.5754 68.3067 88.7016 67.6935 88.0338C67.0804 87.366 66.239 86.9527 65.336 86.8759H31.009Z" fill="#093F68"/>
<path d="M29.031 114.32C28.3482 114.317 27.694 114.046 27.2092 113.565C24.2203 110.802 22.4275 106.981 22.2124 102.916C22.209 101.758 22.434 100.61 22.8745 99.5395C23.3151 98.4687 23.9625 97.4955 24.7796 96.6755C25.5968 95.8554 26.5677 95.2049 27.6366 94.7609C28.7055 94.317 29.8515 94.0885 31.0089 94.0885H65.3358C67.5895 94.2111 69.7104 95.1932 71.2624 96.8327C72.8144 98.4722 73.6793 100.644 73.6793 102.903C73.6793 105.161 72.8144 107.333 71.2624 108.972C69.7104 110.612 67.5895 111.594 65.3358 111.717H45.3226C44.6324 111.717 43.9705 111.442 43.4824 110.954C42.9943 110.466 42.7201 109.803 42.7201 109.113C42.7201 108.422 42.9943 107.76 43.4824 107.271C43.9705 106.783 44.6324 106.509 45.3226 106.509H65.3358C66.2389 106.432 67.0803 106.019 67.6934 105.351C68.3065 104.683 68.6468 103.809 68.6468 102.903C68.6468 101.996 68.3065 101.122 67.6934 100.454C67.0803 99.7863 66.2389 99.373 65.3358 99.2962H31.0089C30.535 99.2962 30.0659 99.39 29.6284 99.5722C29.191 99.7544 28.7939 100.021 28.4601 100.358C28.1263 100.694 27.8623 101.093 27.6833 101.532C27.5044 101.971 27.414 102.441 27.4174 102.916C27.6726 105.581 28.9057 108.058 30.8788 109.868C31.3635 110.356 31.6355 111.016 31.6355 111.703C31.6355 112.391 31.3635 113.051 30.8788 113.539C30.6377 113.785 30.3503 113.981 30.0331 114.115C29.7159 114.249 29.3753 114.319 29.031 114.32Z" fill="#093F68"/>
<path d="M338 461.438H159.547L134.146 345.255C133.757 343.481 133.77 341.642 134.186 339.874C134.601 338.105 135.408 336.453 136.547 335.038C137.686 333.624 139.128 332.483 140.767 331.701C142.405 330.918 144.198 330.514 146.014 330.517H351.611C353.424 330.518 355.215 330.925 356.85 331.709C358.485 332.494 359.924 333.635 361.06 335.049C362.196 336.463 363 338.114 363.415 339.88C363.829 341.646 363.842 343.483 363.453 345.255L338 461.438Z" fill="#F56132"/>
<path d="M338 464.042H159.547C158.941 464.056 158.35 463.858 157.875 463.482C157.4 463.107 157.071 462.577 156.944 461.985L131.544 345.802C131.072 343.647 131.09 341.415 131.596 339.268C132.102 337.122 133.083 335.116 134.467 333.4C135.85 331.683 137.602 330.299 139.591 329.349C141.58 328.4 143.757 327.909 145.962 327.913H351.559C353.761 327.913 355.935 328.407 357.921 329.358C359.907 330.309 361.655 331.694 363.036 333.41C364.417 335.126 365.395 337.13 365.9 339.275C366.404 341.419 366.422 343.65 365.951 345.802L340.55 461.985C340.425 462.568 340.104 463.091 339.639 463.465C339.175 463.84 338.596 464.043 338 464.042ZM161.629 458.834H335.996L360.954 344.708C361.262 343.314 361.253 341.869 360.928 340.479C360.603 339.089 359.969 337.79 359.075 336.677C358.181 335.565 357.048 334.668 355.76 334.052C354.473 333.437 353.064 333.119 351.637 333.121H146.04C144.611 333.114 143.199 333.429 141.91 334.043C140.62 334.657 139.485 335.554 138.589 336.668C137.694 337.781 137.061 339.082 136.738 340.474C136.415 341.867 136.41 343.314 136.723 344.708L161.629 458.834Z" fill="#093F68"/>
<path d="M339.9 461.438H158.714V479.978H339.9V461.438Z" fill="#F56132"/>
<path d="M339.9 482.581H158.714C158.024 482.581 157.362 482.307 156.874 481.819C156.386 481.331 156.111 480.668 156.111 479.978V461.438C156.111 460.748 156.386 460.085 156.874 459.597C157.362 459.109 158.024 458.834 158.714 458.834H339.9C340.59 458.834 341.252 459.109 341.74 459.597C342.228 460.085 342.502 460.748 342.502 461.438V479.978C342.502 480.668 342.228 481.331 341.74 481.819C341.252 482.307 340.59 482.581 339.9 482.581ZM161.316 477.374H337.297V464.042H161.316V477.374Z" fill="#093F68"/>
<path d="M234.629 280.55H263.256V296.954C263.256 300.172 261.979 303.258 259.704 305.534C257.43 307.809 254.345 309.088 251.129 309.088H246.809C243.592 309.088 240.507 307.809 238.233 305.534C235.959 303.258 234.681 300.172 234.681 296.954V280.55H234.629Z" fill="#FFC9B0"/>
<path d="M251.103 311.744H246.782C242.873 311.737 239.127 310.178 236.365 307.41C233.603 304.642 232.052 300.891 232.052 296.98V280.55C232.052 279.859 232.326 279.197 232.815 278.708C233.303 278.22 233.965 277.946 234.655 277.946H263.282C263.972 277.946 264.634 278.22 265.122 278.708C265.611 279.197 265.885 279.859 265.885 280.55V296.954C265.888 298.897 265.508 300.822 264.767 302.618C264.025 304.414 262.936 306.045 261.563 307.419C260.189 308.793 258.559 309.883 256.764 310.625C254.969 311.367 253.045 311.747 251.103 311.744ZM237.257 283.101V296.954C237.257 299.484 238.26 301.91 240.046 303.702C241.831 305.493 244.254 306.503 246.782 306.51H251.103C253.629 306.496 256.048 305.484 257.832 303.694C259.616 301.904 260.621 299.482 260.628 296.954V283.153L237.257 283.101Z" fill="#093F68"/>
<path d="M154.992 206.132C144.582 199.336 143.567 182.88 141.694 171.501C135.259 132.574 139.218 92.6375 153.171 55.734C154.136 67.2442 156.433 78.6035 160.015 89.5839C155.669 76.3044 171.518 53.1302 177.296 42.2982C185.103 27.5344 192.911 16.416 206.131 5.34972L222.475 42.819C230.2 30.4605 235.836 16.9125 239.157 2.71985C238.298 6.39126 282.437 43.5741 283.738 43.3918C285.976 43.1054 288.943 27.7688 288.709 22.3007C306.926 42.168 326.679 65.7067 323.764 92.6044C330.206 85.586 334.615 76.9442 336.517 67.6075C348.689 97.1 352.612 129.351 347.864 160.903C346.25 171.709 344.09 194.753 335.476 202.565C327.46 209.777 309.164 204.543 299.327 204.856L211.128 207.616C195.878 208.085 173.314 213.214 158.688 207.902C157.393 207.453 156.154 206.859 154.992 206.132Z" fill="#725858"/>
<path d="M175.63 212.954C169.608 213.108 163.605 212.227 157.881 210.35C156.397 209.816 154.982 209.108 153.665 208.241C143.619 201.679 141.563 187.671 139.898 176.422C139.664 174.834 139.455 173.323 139.195 171.865C132.647 132.466 136.661 92.0333 150.828 54.6925C151.039 54.1426 151.429 53.6803 151.936 53.3811C152.443 53.0819 153.036 52.9634 153.619 53.045C154.202 53.1266 154.74 53.4034 155.145 53.8303C155.551 54.2572 155.799 54.8089 155.851 55.3955C156.327 61.5896 157.196 67.7471 158.454 73.8307C161.829 64.5208 166.191 55.5995 171.466 47.2194C172.845 44.8239 174.069 42.6627 175.057 40.8661C182.173 26.3998 192.204 13.5629 204.518 3.16246C204.845 2.90734 205.228 2.73406 205.635 2.65707C206.043 2.58007 206.463 2.60158 206.86 2.71981C207.249 2.81427 207.611 2.99735 207.918 3.25478C208.225 3.51221 208.469 3.83704 208.63 4.204L223.022 37.1426C229.265 26.2136 233.885 14.4336 236.737 2.17301C236.813 1.83951 236.955 1.52441 237.154 1.24573C237.352 0.967042 237.604 0.730239 237.894 0.548866C238.184 0.367492 238.507 0.245098 238.844 0.18869C239.181 0.132282 239.526 0.142969 239.86 0.220128C240.396 0.344816 240.878 0.63629 241.238 1.05267C241.599 1.46905 241.817 1.9889 241.864 2.53754C244.466 7.32861 274.759 33.7836 283.191 39.9287C284.976 34.2565 285.999 28.3726 286.236 22.4309C286.222 21.9027 286.369 21.3826 286.657 20.9399C286.945 20.4971 287.361 20.1525 287.85 19.9519C288.338 19.7512 288.876 19.7041 289.392 19.8167C289.908 19.9293 290.378 20.1962 290.739 20.5822C307.759 39.0173 325.586 60.473 326.731 84.871C330.315 79.4954 332.817 73.4723 334.096 67.1388C334.205 66.592 334.486 66.0946 334.898 65.7196C335.31 65.3446 335.832 65.1119 336.386 65.0557C336.932 65.0131 337.477 65.1436 337.944 65.4288C338.412 65.7139 338.777 66.1392 338.989 66.6441C351.399 96.5576 355.386 129.3 350.518 161.32C350.336 162.57 350.128 163.924 349.919 165.538C348.202 178.088 345.625 197.07 337.297 204.596C330.739 210.506 319.392 209.308 309.373 208.241C306.103 207.804 302.808 207.578 299.509 207.564L211.284 210.324C206.99 210.324 202.045 210.975 196.84 211.522C189.799 212.354 182.72 212.832 175.63 212.954ZM152.025 67.1388C141.128 100.731 138.451 136.45 144.218 171.292C144.452 172.751 144.686 174.313 144.921 175.927C146.43 186.16 148.278 198.867 156.372 204.153C157.361 204.787 158.417 205.311 159.521 205.715C169.358 209.282 183.594 207.798 196.164 206.496C201.369 205.923 206.574 205.403 210.972 205.272L299.197 202.512C302.739 202.514 306.277 202.749 309.789 203.215C318.273 204.127 328.839 205.246 333.68 200.872C340.602 194.675 343.127 176.083 344.636 165.017C344.845 163.455 345.053 161.997 345.235 160.747C349.628 132.19 346.792 102.986 336.985 75.8096C334.512 82.6938 330.69 89.0145 325.742 94.401C325.37 94.8034 324.88 95.078 324.343 95.1855C323.805 95.293 323.248 95.2281 322.749 94.9999C322.259 94.7757 321.851 94.4047 321.58 93.9383C321.31 93.4719 321.191 92.933 321.24 92.3961C323.842 68.6751 307.577 47.1153 290.791 28.4718C289.958 35.3459 288.188 45.553 284.128 46.0477C280.068 46.5424 245.377 14.359 240.302 8.96903C236.812 21.4168 231.553 33.2987 224.687 44.251C224.437 44.6538 224.082 44.9806 223.66 45.1963C223.238 45.4119 222.765 45.5083 222.293 45.4749C221.821 45.438 221.368 45.2731 220.983 44.9978C220.598 44.7225 220.295 44.3473 220.107 43.9126L205.09 9.59395C194.537 19.1782 185.876 30.6606 179.56 43.4439C178.571 45.2926 177.296 47.5059 175.864 49.9535C169.28 61.3843 159.234 78.7259 162.618 88.6465C162.802 89.2944 162.729 89.9887 162.413 90.5835C162.097 91.1784 161.562 91.6275 160.922 91.8365C160.282 92.0455 159.586 91.9981 158.98 91.7043C158.374 91.4105 157.906 90.8931 157.673 90.2609C155.157 82.6903 153.243 74.9328 151.947 67.0607L152.025 67.1388Z" fill="#093F68"/>
<path d="M174.693 230.191C190.029 230.191 202.462 219.478 202.462 206.262C202.462 193.046 190.029 182.333 174.693 182.333C159.357 182.333 146.924 193.046 146.924 206.262C146.924 219.478 159.357 230.191 174.693 230.191Z" fill="#FFC9B0"/>
<path d="M174.693 232.821C157.933 232.821 144.322 220.896 144.322 206.262C144.322 191.628 157.933 179.781 174.693 179.781C191.453 179.781 205.038 191.68 205.038 206.314C205.038 220.948 191.427 232.821 174.693 232.821ZM174.693 184.936C160.822 184.936 149.527 194.519 149.527 206.262C149.527 218.005 160.822 227.613 174.693 227.613C188.564 227.613 199.833 218.031 199.833 206.262C199.833 194.493 188.642 184.989 174.693 184.989V184.936Z" fill="#093F68"/>
<path d="M323.14 230.191C338.476 230.191 350.908 219.478 350.908 206.262C350.908 193.046 338.476 182.333 323.14 182.333C307.804 182.333 295.371 193.046 295.371 206.262C295.371 219.478 307.804 230.191 323.14 230.191Z" fill="#FFC9B0"/>
<path d="M323.14 232.821C306.38 232.821 292.769 220.896 292.769 206.262C292.769 191.628 306.38 179.781 323.14 179.781C339.9 179.781 353.485 191.68 353.485 206.314C353.485 220.948 339.874 232.821 323.14 232.821ZM323.14 184.936C309.242 184.936 297.974 194.519 297.974 206.262C297.974 218.005 309.242 227.613 323.14 227.613C337.037 227.613 348.28 218.031 348.28 206.262C348.28 194.493 336.985 184.989 323.14 184.989V184.936Z" fill="#093F68"/>
<path d="M210.139 196.081C214.422 196.081 217.895 192.607 217.895 188.321C217.895 184.036 214.422 180.562 210.139 180.562C205.856 180.562 202.384 184.036 202.384 188.321C202.384 192.607 205.856 196.081 210.139 196.081Z" fill="#093F68"/>
<path d="M290.114 196.081C294.397 196.081 297.869 192.607 297.869 188.321C297.869 184.036 294.397 180.562 290.114 180.562C285.831 180.562 282.358 184.036 282.358 188.321C282.358 192.607 285.831 196.081 290.114 196.081Z" fill="#093F68"/>
<path d="M279.444 225.765C279.212 233.714 275.893 241.26 270.191 246.801C264.488 252.342 256.852 255.442 248.904 255.442C240.955 255.442 233.319 252.342 227.617 246.801C221.915 241.26 218.595 233.714 218.363 225.765H279.444Z" fill="white"/>
<path d="M248.917 258.912C240.13 258.905 231.704 255.411 225.489 249.197C219.273 242.983 215.775 234.556 215.761 225.765C215.761 225.074 216.035 224.412 216.523 223.924C217.011 223.435 217.673 223.161 218.363 223.161H279.444C280.134 223.161 280.796 223.435 281.284 223.924C281.772 224.412 282.046 225.074 282.046 225.765C282.04 234.554 278.547 242.981 272.335 249.195C266.124 255.41 257.701 258.905 248.917 258.912ZM221.07 228.369C221.707 235.313 224.915 241.769 230.065 246.47C235.214 251.171 241.933 253.777 248.904 253.777C255.874 253.777 262.593 251.171 267.742 246.47C272.892 241.769 276.1 235.313 276.737 228.369H221.07Z" fill="#093F68"/>
<path d="M248.5 216.99C245.963 216.989 243.43 216.78 240.927 216.365C240.252 216.244 239.652 215.862 239.258 215.301C238.863 214.741 238.705 214.047 238.819 213.37C238.875 213.031 238.999 212.707 239.181 212.415C239.364 212.124 239.603 211.872 239.883 211.673C240.164 211.475 240.481 211.334 240.817 211.259C241.152 211.184 241.499 211.176 241.838 211.235C245.571 211.882 249.383 211.935 253.132 211.392C253.471 209.022 250.53 200.976 246.6 193.295C246.298 192.686 246.246 191.982 246.456 191.336C246.665 190.689 247.12 190.149 247.721 189.833C248.323 189.517 249.024 189.449 249.676 189.643C250.327 189.837 250.876 190.279 251.207 190.873C253.939 196.081 260.055 208.814 257.791 213.839C257.539 214.474 257.142 215.04 256.631 215.492C256.12 215.945 255.51 216.27 254.85 216.443C252.762 216.874 250.631 217.058 248.5 216.99Z" fill="#093F68"/>
<path d="M189.111 165.434C188.427 165.47 187.744 165.37 187.098 165.142C186.453 164.913 185.859 164.56 185.35 164.102C184.323 163.176 183.705 161.881 183.633 160.499C183.56 159.118 184.039 157.765 184.964 156.737C185.889 155.709 187.184 155.091 188.564 155.018L225.338 151.139C226.718 150.994 228.1 151.403 229.178 152.277C230.257 153.151 230.944 154.418 231.089 155.8C231.234 157.181 230.825 158.563 229.951 159.642C229.078 160.721 227.811 161.409 226.431 161.554L189.657 165.408L189.111 165.434Z" fill="#093F68"/>
<path d="M315.332 168.871C315.003 168.909 314.672 168.909 314.343 168.871L277.908 161.997C276.552 161.738 275.354 160.95 274.578 159.808C273.802 158.665 273.511 157.261 273.77 155.904C274.029 154.547 274.816 153.348 275.958 152.572C277.1 151.795 278.504 151.505 279.86 151.764L316.295 158.638C317.675 158.766 318.949 159.437 319.834 160.504C320.72 161.571 321.146 162.946 321.018 164.327C320.891 165.708 320.22 166.982 319.153 167.868C318.087 168.755 316.712 169.181 315.332 169.053V168.871Z" fill="#093F68"/>
<path d="M248.917 280.549C228.592 280.543 209.101 272.461 194.729 258.082C180.357 243.702 172.28 224.202 172.273 203.866V127.209C191.777 111.541 215.161 101.453 239.938 98.0203C308.358 123.512 325.534 127.209 325.534 127.209V203.866C325.534 224.199 317.463 243.7 303.095 258.08C288.727 272.46 269.239 280.543 248.917 280.549Z" fill="#FFC9B0"/>
<path d="M248.917 283.153C227.905 283.133 207.761 274.773 192.904 259.908C178.047 245.043 169.691 224.888 169.67 203.866V127.209C169.671 126.846 169.748 126.487 169.896 126.155C170.044 125.823 170.26 125.526 170.529 125.283C171.596 124.319 197.101 101.666 239.6 95.4425C240.026 95.3323 240.474 95.3323 240.901 95.4425C308.123 120.518 325.898 124.501 326.081 124.527C326.673 124.654 327.202 124.984 327.577 125.459C327.952 125.934 328.15 126.526 328.137 127.131V203.788C328.137 224.819 319.794 244.99 304.94 259.871C290.086 274.752 269.937 283.126 248.917 283.153ZM174.875 128.407V203.919C174.691 213.762 176.469 223.543 180.107 232.691C183.744 241.839 189.168 250.169 196.06 257.196C202.952 264.222 211.176 269.804 220.249 273.614C229.322 277.424 239.063 279.387 248.904 279.387C258.744 279.387 268.485 277.424 277.558 273.614C286.631 269.804 294.855 264.222 301.747 257.196C308.639 250.169 314.063 241.839 317.7 232.691C321.338 223.543 323.116 213.762 322.932 203.919V129.24C316.738 127.626 295.267 121.429 239.652 100.598C216.027 104.134 193.715 113.713 174.875 128.407Z" fill="#093F68"/>
<path d="M224.817 184.989H195.487C191.458 184.982 187.597 183.377 184.748 180.527C181.899 177.677 180.295 173.813 180.289 169.782V157.726C180.295 153.696 181.899 149.832 184.748 146.981C187.597 144.131 191.458 142.527 195.487 142.52H224.817C228.844 142.527 232.703 144.132 235.548 146.983C238.392 149.834 239.99 153.698 239.99 157.726V169.782C239.99 173.811 238.392 177.675 235.548 180.526C232.703 183.377 228.844 184.982 224.817 184.989ZM195.487 147.728C192.837 147.728 190.295 148.781 188.421 150.656C186.546 152.531 185.494 155.075 185.494 157.726V169.782C185.494 172.434 186.546 174.977 188.421 176.852C190.295 178.728 192.837 179.781 195.487 179.781H224.817C227.463 179.774 229.999 178.718 231.867 176.843C233.736 174.969 234.785 172.43 234.785 169.782V157.726C234.785 155.079 233.736 152.54 231.867 150.665C229.999 148.791 227.463 147.735 224.817 147.728H195.487Z" fill="#093F68"/>
<path d="M302.736 184.989H273.406C269.377 184.982 265.516 183.377 262.667 180.527C259.818 177.677 258.214 173.813 258.208 169.782V157.726C258.214 153.696 259.818 149.832 262.667 146.981C265.516 144.131 269.377 142.527 273.406 142.52H302.736C306.763 142.527 310.622 144.132 313.467 146.983C316.311 149.834 317.909 153.698 317.909 157.726V169.782C317.909 173.811 316.311 177.675 313.467 180.526C310.622 183.377 306.763 184.982 302.736 184.989ZM273.406 147.728C270.756 147.728 268.214 148.781 266.34 150.656C264.465 152.531 263.413 155.075 263.413 157.726V169.782C263.413 172.434 264.465 174.977 266.34 176.852C268.214 178.728 270.756 179.781 273.406 179.781H302.736C305.382 179.774 307.917 178.718 309.786 176.843C311.655 174.969 312.704 172.43 312.704 169.782V157.726C312.704 155.079 311.655 152.54 309.786 150.665C307.917 148.791 305.382 147.735 302.736 147.728H273.406Z" fill="#093F68"/>
<path d="M260.81 163.299C260.223 163.295 259.654 163.093 259.197 162.726C250.999 156.294 240.849 162.726 240.406 162.882C240.118 163.065 239.796 163.189 239.459 163.248C239.122 163.306 238.777 163.298 238.444 163.223C238.11 163.148 237.795 163.008 237.515 162.811C237.236 162.614 236.998 162.364 236.815 162.075C236.454 161.493 236.336 160.793 236.487 160.126C236.638 159.458 237.046 158.877 237.622 158.508C238.168 158.143 251.311 149.915 262.424 158.508C262.693 158.721 262.917 158.985 263.084 159.285C263.251 159.585 263.357 159.915 263.395 160.257C263.434 160.598 263.405 160.943 263.31 161.273C263.214 161.603 263.055 161.911 262.84 162.179C262.611 162.51 262.309 162.783 261.957 162.977C261.604 163.172 261.212 163.282 260.81 163.299Z" fill="#093F68"/>
<path d="M163.138 184.989C162.62 184.987 162.115 184.83 161.686 184.539C161.258 184.248 160.926 183.835 160.733 183.354C160.54 182.873 160.495 182.346 160.604 181.839C160.712 181.332 160.969 180.87 161.342 180.51L181.095 161.814C181.605 161.398 182.253 161.19 182.909 161.232C183.566 161.274 184.182 161.564 184.634 162.042C185.086 162.521 185.34 163.153 185.345 163.811C185.35 164.469 185.105 165.105 184.661 165.59L164.908 184.286C164.428 184.735 163.796 184.986 163.138 184.989Z" fill="#093F68"/>
<path d="M335.45 184.989C334.783 184.993 334.14 184.741 333.654 184.286L313.901 165.59C313.624 165.364 313.397 165.083 313.233 164.764C313.07 164.446 312.974 164.098 312.951 163.741C312.928 163.384 312.979 163.026 313.1 162.69C313.221 162.353 313.411 162.046 313.656 161.786C313.902 161.526 314.198 161.319 314.527 161.179C314.856 161.038 315.21 160.967 315.567 160.97C315.925 160.973 316.278 161.049 316.605 161.194C316.931 161.34 317.225 161.551 317.466 161.814L337.219 180.51C337.704 180.998 337.976 181.658 337.976 182.346C337.976 183.034 337.704 183.693 337.219 184.181C336.756 184.669 336.122 184.958 335.45 184.989Z" fill="#093F68"/>
<path d="M254.616 209.933C252.32 209.929 250.035 209.614 247.823 208.996C247.193 208.779 246.67 208.328 246.362 207.737C246.055 207.145 245.985 206.458 246.169 205.817C246.352 205.176 246.775 204.63 247.349 204.291C247.923 203.952 248.605 203.847 249.255 203.997C249.723 203.997 260.992 207.199 263.464 199.804C265.468 193.738 254.278 180.041 246.756 172.829C246.509 172.593 246.31 172.31 246.171 171.997C246.032 171.685 245.957 171.347 245.948 171.005C245.94 170.663 245.999 170.323 246.122 170.003C246.245 169.684 246.429 169.392 246.665 169.144C246.901 168.896 247.183 168.697 247.496 168.559C247.809 168.42 248.146 168.344 248.488 168.336C248.83 168.327 249.17 168.386 249.489 168.509C249.808 168.632 250.1 168.817 250.348 169.053C252.586 171.188 272.105 190.3 268.383 201.445C266.197 208.059 260.081 209.933 254.616 209.933Z" fill="#093F68"/>
<path d="M212.69 168.663C216.082 168.663 218.832 165.911 218.832 162.517C218.832 159.124 216.082 156.372 212.69 156.372C209.298 156.372 206.548 159.124 206.548 162.517C206.548 165.911 209.298 168.663 212.69 168.663Z" fill="#093F68"/>
<path d="M290.114 168.663C293.506 168.663 296.256 165.911 296.256 162.517C296.256 159.124 293.506 156.372 290.114 156.372C286.722 156.372 283.972 159.124 283.972 162.517C283.972 165.911 286.722 168.663 290.114 168.663Z" fill="#093F68"/>
<path d="M189.137 140.932C188.043 140.928 186.977 140.579 186.092 139.935C185.206 139.29 184.547 138.383 184.207 137.342C183.867 136.301 183.863 135.179 184.197 134.136C184.531 133.093 185.185 132.182 186.066 131.532C187.003 130.855 209.489 114.971 231.766 127.079C232.981 127.735 233.886 128.847 234.281 130.171C234.676 131.494 234.53 132.92 233.874 134.136C233.218 135.351 232.107 136.256 230.784 136.652C229.462 137.047 228.036 136.901 226.821 136.245C210.217 127.261 192.338 139.838 192.156 139.968C191.274 140.595 190.219 140.932 189.137 140.932Z" fill="#093F68"/>
<path d="M303.673 140.958C302.588 140.951 301.533 140.605 300.654 139.968C300.342 139.76 282.437 127.288 265.989 136.245C265.387 136.57 264.728 136.773 264.048 136.843C263.368 136.912 262.681 136.847 262.026 136.652C261.371 136.456 260.761 136.133 260.231 135.701C259.701 135.269 259.261 134.737 258.936 134.136C258.611 133.534 258.408 132.874 258.339 132.194C258.269 131.513 258.334 130.826 258.53 130.171C258.725 129.515 259.048 128.905 259.48 128.375C259.911 127.844 260.443 127.404 261.044 127.079C283.452 114.971 305.807 130.855 306.744 131.532C307.636 132.178 308.301 133.091 308.641 134.139C308.982 135.187 308.982 136.316 308.641 137.364C308.299 138.412 307.634 139.324 306.742 139.97C305.849 140.616 304.775 140.962 303.673 140.958Z" fill="#093F68"/>
<path d="M269.06 220.922H237.387C237.387 220.922 241.421 269.119 253.236 265.187C265.052 261.255 269.06 220.922 269.06 220.922Z" fill="#093F68"/>
<path d="M251.857 267.947C250.503 267.94 249.181 267.532 248.058 266.775C238.558 260.526 235.357 227.718 234.811 221.156C234.781 220.797 234.825 220.436 234.942 220.095C235.058 219.755 235.244 219.442 235.487 219.177C235.728 218.911 236.021 218.697 236.348 218.549C236.675 218.401 237.029 218.322 237.387 218.318H269.06C269.423 218.319 269.782 218.395 270.114 218.543C270.445 218.691 270.742 218.907 270.986 219.177C271.228 219.447 271.411 219.765 271.523 220.111C271.635 220.456 271.673 220.821 271.636 221.182C267.654 260.995 256.307 266.801 254.069 267.556C253.359 267.81 252.611 267.942 251.857 267.947ZM240.25 223.525C241.681 237.821 245.455 258.886 250.894 262.401C251.098 262.568 251.343 262.678 251.604 262.72C251.865 262.761 252.132 262.732 252.378 262.635C259.378 260.266 264.323 238.498 266.145 223.578L240.25 223.525Z" fill="#093F68"/>
<path d="M494.514 482.581H3.03219C2.34196 482.581 1.68 482.307 1.19194 481.819C0.703877 481.33 0.429688 480.668 0.429688 479.978C0.429688 479.287 0.703877 478.625 1.19194 478.136C1.68 477.648 2.34196 477.374 3.03219 477.374H494.514C495.205 477.374 495.867 477.648 496.355 478.136C496.843 478.625 497.117 479.287 497.117 479.978C497.117 480.668 496.843 481.33 496.355 481.819C495.867 482.307 495.205 482.581 494.514 482.581Z" fill="#093F68"/>
<path d="M251.259 419.386C261.377 419.386 269.58 413.196 269.58 405.56C269.58 397.924 261.377 391.733 251.259 391.733C241.14 391.733 232.937 397.924 232.937 405.56C232.937 413.196 241.14 419.386 251.259 419.386Z" fill="#F56132"/>
<path d="M251.258 421.938C239.703 421.938 230.438 414.569 230.438 405.534C230.438 396.498 239.807 389.104 251.258 389.104C262.709 389.104 272.078 396.472 272.078 405.534C272.078 414.595 262.788 421.938 251.258 421.938ZM251.258 394.311C242.592 394.311 235.643 399.337 235.643 405.534C235.643 411.731 242.696 416.73 251.258 416.73C259.821 416.73 266.873 411.705 266.873 405.534C266.873 399.363 259.925 394.337 251.258 394.337V394.311Z" fill="#093F68"/>
<path d="M251.259 394.337H250.816C250.137 394.223 249.531 393.843 249.13 393.282C248.73 392.72 248.569 392.023 248.682 391.343C248.916 390.015 251.077 378.532 259.092 377.595C259.434 377.555 259.78 377.584 260.111 377.678C260.442 377.773 260.751 377.932 261.02 378.146C261.29 378.36 261.514 378.625 261.681 378.925C261.848 379.226 261.955 379.557 261.994 379.899C262.033 380.241 262.005 380.587 261.91 380.918C261.816 381.249 261.657 381.558 261.443 381.828C261.229 382.098 260.965 382.322 260.664 382.49C260.363 382.657 260.033 382.763 259.691 382.802C256.464 383.193 254.486 389.338 253.887 392.254C253.765 392.856 253.434 393.395 252.953 393.776C252.472 394.157 251.872 394.356 251.259 394.337Z" fill="#093F68"/>
<path d="M71.5302 405.247H123.762V458.027C123.762 463.586 121.555 468.918 117.626 472.849C113.697 476.78 108.369 478.988 102.812 478.988H92.4023C86.846 478.988 81.5172 476.78 77.5883 472.849C73.6594 468.918 71.4521 463.586 71.4521 458.027V405.247H71.5302Z" fill="#FFBC0E"/>
<path d="M102.76 481.592H92.35C86.128 481.585 80.1609 479.118 75.7491 474.729C71.3374 470.339 68.8386 464.382 68.7974 458.157V405.247C68.7974 404.557 69.0716 403.895 69.5596 403.406C70.0477 402.918 70.7096 402.644 71.3999 402.644H123.632C124.322 402.644 124.984 402.918 125.472 403.406C125.96 403.895 126.235 404.557 126.235 405.247V458.027C126.221 464.259 123.746 470.233 119.349 474.647C114.951 479.061 108.989 481.558 102.76 481.592ZM74.1325 407.851V458.027C74.1668 462.873 76.115 467.509 79.5522 470.924C82.9893 474.338 87.6365 476.254 92.4801 476.254H102.89C107.736 476.254 112.386 474.339 115.827 470.925C119.269 467.511 121.223 462.876 121.264 458.027V407.851H74.1325Z" fill="#093F68"/>
<path d="M71.5299 456.074H70.9833C65.1761 455.876 59.6728 453.429 55.6347 449.248C51.5965 445.068 49.3394 439.482 49.3394 433.668C49.3394 427.855 51.5965 422.268 55.6347 418.088C59.6728 413.908 65.1761 411.46 70.9833 411.262H71.5299C72.2201 411.262 72.882 411.537 73.3701 412.025C73.8582 412.513 74.1324 413.175 74.1324 413.866V453.47C74.1324 454.161 73.8582 454.823 73.3701 455.312C72.882 455.8 72.2201 456.074 71.5299 456.074ZM68.9274 416.73C64.7473 417.221 60.8929 419.23 58.0957 422.377C55.2985 425.523 53.7532 429.588 53.7532 433.798C53.7532 438.009 55.2985 442.074 58.0957 445.22C60.8929 448.366 64.7473 450.376 68.9274 450.867V416.73Z" fill="#093F68"/>
<path d="M476.895 419.36V369.653H376.881V419.36H363.687V449.929H375.085V479.978H475.1V449.435H463.727V419.36H476.895Z" fill="white"/>
<path d="M475.1 482.581H375.085C374.395 482.581 373.733 482.307 373.245 481.819C372.757 481.33 372.483 480.668 372.483 479.978V452.533H363.686C362.996 452.533 362.334 452.259 361.846 451.77C361.358 451.282 361.084 450.62 361.084 449.929V419.334C361.084 418.644 361.358 417.981 361.846 417.493C362.334 417.005 362.996 416.73 363.686 416.73H374.279V369.653C374.279 368.962 374.553 368.3 375.041 367.812C375.529 367.323 376.191 367.049 376.881 367.049H476.895C477.585 367.049 478.247 367.323 478.735 367.812C479.224 368.3 479.498 368.962 479.498 369.653V419.334C479.498 420.025 479.224 420.687 478.735 421.175C478.247 421.664 477.585 421.938 476.895 421.938H466.329V446.805H475.1C475.79 446.805 476.452 447.079 476.94 447.567C477.428 448.056 477.702 448.718 477.702 449.409V479.952C477.705 480.296 477.641 480.637 477.511 480.956C477.382 481.275 477.191 481.565 476.949 481.81C476.707 482.054 476.419 482.248 476.102 482.381C475.784 482.513 475.444 482.581 475.1 482.581ZM377.688 477.374H472.497V452.038H463.727C463.036 452.038 462.374 451.764 461.886 451.276C461.398 450.787 461.124 450.125 461.124 449.435V419.334C461.124 418.644 461.398 417.981 461.886 417.493C462.374 417.005 463.036 416.73 463.727 416.73H474.293V372.257H379.484V419.334C379.484 420.025 379.209 420.687 378.721 421.175C378.233 421.664 377.571 421.938 376.881 421.938H366.289V447.299H375.085C375.776 447.299 376.438 447.574 376.926 448.062C377.414 448.55 377.688 449.213 377.688 449.903V477.374Z" fill="#093F68"/>
<path d="M463.727 452.038H401.475C400.785 452.038 400.123 451.764 399.635 451.276C399.147 450.787 398.873 450.125 398.873 449.435C398.873 448.744 399.147 448.082 399.635 447.593C400.123 447.105 400.785 446.831 401.475 446.831H463.727C464.417 446.831 465.079 447.105 465.567 447.593C466.055 448.082 466.329 448.744 466.329 449.435C466.329 450.125 466.055 450.787 465.567 451.276C465.079 451.764 464.417 452.038 463.727 452.038Z" fill="#093F68"/>
<path d="M412.457 421.938H376.881C376.191 421.938 375.529 421.664 375.041 421.175C374.553 420.687 374.279 420.025 374.279 419.334C374.279 418.644 374.553 417.981 375.041 417.493C375.529 417.005 376.191 416.73 376.881 416.73H412.457C413.148 416.73 413.81 417.005 414.298 417.493C414.786 417.981 415.06 418.644 415.06 419.334C415.06 420.025 414.786 420.687 414.298 421.175C413.81 421.664 413.148 421.938 412.457 421.938Z" fill="#093F68"/>
<path d="M463.727 421.938H436.635C435.945 421.938 435.283 421.664 434.794 421.175C434.306 420.687 434.032 420.025 434.032 419.334C434.032 418.644 434.306 417.981 434.794 417.493C435.283 417.005 435.945 416.73 436.635 416.73H463.727C464.417 416.73 465.079 417.005 465.567 417.493C466.055 417.981 466.329 418.644 466.329 419.334C466.329 420.025 466.055 420.687 465.567 421.175C465.079 421.664 464.417 421.938 463.727 421.938Z" fill="#093F68"/>
<path d="M476.896 401.446H391.638C390.947 401.446 390.285 401.172 389.797 400.683C389.309 400.195 389.035 399.533 389.035 398.842C389.035 398.151 389.309 397.489 389.797 397.001C390.285 396.512 390.947 396.238 391.638 396.238H476.948C477.638 396.238 478.3 396.512 478.788 397.001C479.276 397.489 479.55 398.151 479.55 398.842C479.55 399.533 479.276 400.195 478.788 400.683C478.3 401.172 477.638 401.446 476.948 401.446H476.896Z" fill="#093F68"/>
<path d="M444.338 386.057H378.391C377.7 386.057 377.038 385.783 376.55 385.294C376.062 384.806 375.788 384.144 375.788 383.453C375.788 382.763 376.062 382.1 376.55 381.612C377.038 381.124 377.7 380.849 378.391 380.849H444.338C445.028 380.849 445.69 381.124 446.178 381.612C446.666 382.1 446.94 382.763 446.94 383.453C446.94 384.144 446.666 384.806 446.178 385.294C445.69 385.783 445.028 386.057 444.338 386.057Z" fill="#093F68"/>
<path d="M441.762 433.707H367.382C366.692 433.707 366.03 433.433 365.542 432.945C365.054 432.456 364.78 431.794 364.78 431.104C364.78 430.413 365.054 429.751 365.542 429.262C366.03 428.774 366.692 428.5 367.382 428.5H441.762C442.452 428.5 443.114 428.774 443.602 429.262C444.09 429.751 444.364 430.413 444.364 431.104C444.364 431.794 444.09 432.456 443.602 432.945C443.114 433.433 442.452 433.707 441.762 433.707Z" fill="#093F68"/>
<path d="M454.227 464.042H375.085C374.395 464.042 373.733 463.768 373.245 463.28C372.757 462.791 372.483 462.129 372.483 461.438C372.483 460.748 372.757 460.085 373.245 459.597C373.733 459.109 374.395 458.834 375.085 458.834H454.227C454.918 458.834 455.58 459.109 456.068 459.597C456.556 460.085 456.83 460.748 456.83 461.438C456.83 462.129 456.556 462.791 456.068 463.28C455.58 463.768 454.918 464.042 454.227 464.042Z" fill="#093F68"/>
<path d="M53.3125 293.23C52.6222 293.23 51.9603 292.956 51.4722 292.468C50.9842 291.979 50.71 291.317 50.71 290.626V281.331C50.71 280.64 50.9842 279.978 51.4722 279.489C51.9603 279.001 52.6222 278.727 53.3125 278.727C54.0027 278.727 54.6646 279.001 55.1527 279.489C55.6408 279.978 55.915 280.64 55.915 281.331V290.6C55.9184 290.944 55.8536 291.286 55.7244 291.605C55.5951 291.924 55.404 292.214 55.162 292.458C54.92 292.703 54.6319 292.897 54.3144 293.03C53.997 293.162 53.6564 293.23 53.3125 293.23Z" fill="#DFEAEF"/>
<path d="M53.3125 313.332C52.6222 313.332 51.9603 313.058 51.4722 312.569C50.9842 312.081 50.71 311.419 50.71 310.728V301.484C50.71 300.794 50.9842 300.132 51.4722 299.643C51.9603 299.155 52.6222 298.881 53.3125 298.881C54.0027 298.881 54.6646 299.155 55.1527 299.643C55.6408 300.132 55.915 300.794 55.915 301.484V310.728C55.915 311.419 55.6408 312.081 55.1527 312.569C54.6646 313.058 54.0027 313.332 53.3125 313.332Z" fill="#DFEAEF"/>
<path d="M68.0168 298.646H58.7519C58.0617 298.646 57.3997 298.372 56.9117 297.884C56.4236 297.395 56.1494 296.733 56.1494 296.042C56.1494 295.352 56.4236 294.689 56.9117 294.201C57.3997 293.713 58.0617 293.438 58.7519 293.438H68.0168C68.707 293.438 69.369 293.713 69.8571 294.201C70.3451 294.689 70.6193 295.352 70.6193 296.042C70.6193 296.733 70.3451 297.395 69.8571 297.884C69.369 298.372 68.707 298.646 68.0168 298.646Z" fill="#DFEAEF"/>
<path d="M47.8995 298.646H38.6606C37.9704 298.646 37.3084 298.372 36.8204 297.884C36.3323 297.395 36.0581 296.733 36.0581 296.042C36.0581 295.352 36.3323 294.689 36.8204 294.201C37.3084 293.713 37.9704 293.438 38.6606 293.438H47.8995C48.5897 293.438 49.2517 293.713 49.7397 294.201C50.2278 294.689 50.502 295.352 50.502 296.042C50.502 296.733 50.2278 297.395 49.7397 297.884C49.2517 298.372 48.5897 298.646 47.8995 298.646Z" fill="#DFEAEF"/>
<path d="M431.846 298.646C431.156 298.646 430.494 298.372 430.006 297.884C429.518 297.395 429.244 296.733 429.244 296.042V286.799C429.244 286.108 429.518 285.446 430.006 284.958C430.494 284.469 431.156 284.195 431.846 284.195C432.536 284.195 433.198 284.469 433.686 284.958C434.174 285.446 434.449 286.108 434.449 286.799V296.042C434.449 296.733 434.174 297.395 433.686 297.884C433.198 298.372 432.536 298.646 431.846 298.646Z" fill="#DFEAEF"/>
<path d="M431.846 318.774C431.156 318.774 430.494 318.499 430.006 318.011C429.518 317.523 429.244 316.861 429.244 316.17V306.926C429.244 306.236 429.518 305.573 430.006 305.085C430.494 304.597 431.156 304.323 431.846 304.323C432.536 304.323 433.198 304.597 433.686 305.085C434.174 305.573 434.449 306.236 434.449 306.926V316.17C434.449 316.861 434.174 317.523 433.686 318.011C433.198 318.499 432.536 318.774 431.846 318.774Z" fill="#DFEAEF"/>
<path d="M446.55 304.088H437.285C436.595 304.088 435.933 303.814 435.445 303.326C434.957 302.837 434.683 302.175 434.683 301.484C434.683 300.794 434.957 300.132 435.445 299.643C435.933 299.155 436.595 298.881 437.285 298.881H446.55C447.24 298.881 447.902 299.155 448.39 299.643C448.878 300.132 449.153 300.794 449.153 301.484C449.153 302.175 448.878 302.837 448.39 303.326C447.902 303.814 447.24 304.088 446.55 304.088Z" fill="#DFEAEF"/>
<path d="M426.433 304.088H417.168C416.478 304.088 415.816 303.814 415.328 303.326C414.84 302.837 414.565 302.175 414.565 301.484C414.565 300.794 414.84 300.132 415.328 299.643C415.816 299.155 416.478 298.881 417.168 298.881H426.433C427.123 298.881 427.785 299.155 428.273 299.643C428.761 300.132 429.035 300.794 429.035 301.484C429.035 302.175 428.761 302.837 428.273 303.326C427.785 303.814 427.123 304.088 426.433 304.088Z" fill="#DFEAEF"/>
<path d="M456.7 214.386C456.01 214.386 455.348 214.112 454.86 213.623C454.372 213.135 454.098 212.473 454.098 211.782V203.971C454.098 203.28 454.372 202.618 454.86 202.129C455.348 201.641 456.01 201.367 456.7 201.367C457.39 201.367 458.052 201.641 458.54 202.129C459.028 202.618 459.303 203.28 459.303 203.971V211.782C459.303 212.473 459.028 213.135 458.54 213.623C458.052 214.112 457.39 214.386 456.7 214.386Z" fill="#DFEAEF"/>
<path d="M456.7 231.337C456.01 231.337 455.348 231.063 454.86 230.574C454.372 230.086 454.098 229.424 454.098 228.733V220.922C454.098 220.231 454.372 219.569 454.86 219.08C455.348 218.592 456.01 218.318 456.7 218.318C457.39 218.318 458.052 218.592 458.54 219.08C459.028 219.569 459.303 220.231 459.303 220.922V228.733C459.303 229.424 459.028 230.086 458.54 230.574C458.052 231.063 457.39 231.337 456.7 231.337Z" fill="#DFEAEF"/>
<path d="M468.958 218.969H461.15C460.46 218.969 459.798 218.694 459.31 218.206C458.822 217.718 458.548 217.055 458.548 216.365C458.548 215.674 458.822 215.012 459.31 214.524C459.798 214.035 460.46 213.761 461.15 213.761H468.958C469.648 213.761 470.31 214.035 470.798 214.524C471.286 215.012 471.56 215.674 471.56 216.365C471.56 217.055 471.286 217.718 470.798 218.206C470.31 218.694 469.648 218.969 468.958 218.969Z" fill="#DFEAEF"/>
<path d="M452.015 218.969H444.208C443.518 218.969 442.856 218.694 442.368 218.206C441.88 217.718 441.605 217.055 441.605 216.365C441.605 215.674 441.88 215.012 442.368 214.524C442.856 214.035 443.518 213.761 444.208 213.761H452.015C452.706 213.761 453.368 214.035 453.856 214.524C454.344 215.012 454.618 215.674 454.618 216.365C454.618 217.055 454.344 217.718 453.856 218.206C453.368 218.694 452.706 218.969 452.015 218.969Z" fill="#DFEAEF"/>
</svg>
